<svg width="0" height="0" class="hidden">
  <symbol xmlns="http://www.w3.org/2000/svg" viewBox="0 0 290 59" id="logo">
    <path d="M100.064 11.594v16.8h-3.84V14.762h-5.76l-.12 3.504c-.08 2.384-.272 4.32-.576 5.808-.304 1.472-.816 2.608-1.536 3.408-.704.784-1.696 1.176-2.976 1.176-.528 0-1.168-.088-1.92-.264l.24-3.288c.208.064.44.096.696.096.928 0 1.576-.544 1.944-1.632.368-1.104.6-2.824.696-5.16l.24-6.816h12.912zm15.572 13.2h-7.8l-1.488 3.6h-3.984l7.488-16.8h3.84l7.512 16.8h-4.08l-1.488-3.6zm-1.224-2.952l-2.664-6.432-2.664 6.432h5.328zm20.66-2.208c1.024.304 1.808.8 2.352 1.488.544.688.816 1.536.816 2.544 0 1.488-.568 2.648-1.704 3.48-1.12.832-2.728 1.248-4.824 1.248h-8.28v-16.8h7.824c1.952 0 3.472.376 4.56 1.128 1.088.752 1.632 1.824 1.632 3.216 0 .832-.208 1.568-.624 2.208-.416.624-1 1.12-1.752 1.488zm-7.776-1.08h3.624c.848 0 1.488-.168 1.92-.504.432-.352.648-.864.648-1.536 0-.656-.224-1.16-.672-1.512-.432-.352-1.064-.528-1.896-.528h-3.624v4.08zm4.272 6.96c1.824 0 2.736-.72 2.736-2.16 0-1.392-.912-2.088-2.736-2.088h-4.272v4.248h4.272zm16.251-3.888h-2.688v6.768h-3.864v-16.8h3.864v6.792h2.784l4.416-6.792h4.104l-5.496 8.112 5.664 8.688h-4.416l-4.368-6.768zm21.653 3.168h-7.8l-1.488 3.6H156.2l7.488-16.8h3.84l7.512 16.8h-4.08l-1.488-3.6zm-1.224-2.952l-2.664-6.432-2.664 6.432h5.328zm33.433 3.384v6.72h-3.576v-3.552h-14.04v-16.8h3.864v13.632h7.488V11.594h3.864v13.632h2.4zm14.203-5.592c1.024.304 1.808.8 2.352 1.488.544.688.816 1.536.816 2.544 0 1.488-.568 2.648-1.704 3.48-1.12.832-2.728 1.248-4.824 1.248h-8.28v-16.8h7.824c1.952 0 3.472.376 4.56 1.128 1.088.752 1.632 1.824 1.632 3.216 0 .832-.208 1.568-.624 2.208-.416.624-1 1.12-1.752 1.488zm-7.776-1.08h3.624c.848 0 1.488-.168 1.92-.504.432-.352.648-.864.648-1.536 0-.656-.224-1.16-.672-1.512-.432-.352-1.064-.528-1.896-.528h-3.624v4.08zm4.272 6.96c1.824 0 2.736-.72 2.736-2.16 0-1.392-.912-2.088-2.736-2.088h-4.272v4.248h4.272zm22.755-.24v3.12h-13.008v-16.8h12.696v3.12h-8.832v3.648h7.8v3.024h-7.8v3.888h9.144zm15.981-10.512h-5.376v13.632h-3.84V14.762h-5.352v-3.168h14.568v3.168zm10.222 13.92c-1.744 0-3.32-.376-4.728-1.128-1.392-.752-2.488-1.784-3.288-3.096-.784-1.328-1.176-2.816-1.176-4.464 0-1.648.392-3.128 1.176-4.44a8.452 8.452 0 013.288-3.12c1.408-.752 2.984-1.128 4.728-1.128 1.744 0 3.312.376 4.704 1.128a8.452 8.452 0 013.288 3.12c.8 1.312 1.2 2.792 1.2 4.44 0 1.648-.4 3.136-1.2 4.464-.8 1.312-1.896 2.344-3.288 3.096-1.392.752-2.96 1.128-4.704 1.128zm0-3.312c.992 0 1.888-.224 2.688-.672a4.909 4.909 0 001.872-1.92c.464-.816.696-1.744.696-2.784 0-1.04-.232-1.968-.696-2.784a4.744 4.744 0 00-1.872-1.896c-.8-.464-1.696-.696-2.688-.696-.992 0-1.888.232-2.688.696a4.907 4.907 0 00-1.896 1.896c-.448.816-.672 1.744-.672 2.784 0 1.04.224 1.968.672 2.784a5.08 5.08 0 001.896 1.92c.8.448 1.696.672 2.688.672zm23.828-5.736c1.024.304 1.808.8 2.352 1.488.544.688.816 1.536.816 2.544 0 1.488-.568 2.648-1.704 3.48-1.12.832-2.728 1.248-4.824 1.248h-8.28v-16.8h7.824c1.952 0 3.472.376 4.56 1.128 1.088.752 1.632 1.824 1.632 3.216 0 .832-.208 1.568-.624 2.208-.416.624-1 1.12-1.752 1.488zm-7.776-1.08h3.624c.848 0 1.488-.168 1.92-.504.432-.352.648-.864.648-1.536 0-.656-.224-1.16-.672-1.512-.432-.352-1.064-.528-1.896-.528h-3.624v4.08zm4.272 6.96c1.824 0 2.736-.72 2.736-2.16 0-1.392-.912-2.088-2.736-2.088h-4.272v4.248h4.272z" ></path>
    <path d="M94.172 49.343v3.191h-.966V50.24h-8.554v-9.8h1.022v8.904h5.922v-8.905h1.022v8.904h1.554zm6.512-2.913c.999.234 1.498.836 1.498 1.806 0 .645-.238 1.14-.714 1.485-.476.345-1.185.518-2.128.518h-3.346v-7.364h3.248c.84 0 1.498.163 1.974.49.476.326.714.793.714 1.4 0 .4-.112.746-.336 1.035-.215.28-.518.49-.91.63zm-3.724-.28h2.212c.57 0 1.003-.107 1.302-.322.308-.214.462-.527.462-.938 0-.41-.154-.718-.462-.923-.299-.206-.733-.309-1.302-.309H96.96v2.492zm2.338 3.305c.635 0 1.111-.103 1.428-.308.317-.206.476-.528.476-.966 0-.44-.145-.761-.434-.966-.289-.215-.747-.323-1.372-.323H96.96v2.563h2.338zm11.654-2.59h-6.16c.056.765.35 1.386.882 1.861.532.467 1.204.7 2.016.7.457 0 .877-.079 1.26-.238.382-.168.714-.41.994-.727l.56.644a3.15 3.15 0 01-1.232.896 4.093 4.093 0 01-1.61.308c-.756 0-1.428-.16-2.016-.476a3.537 3.537 0 01-1.358-1.344c-.327-.57-.49-1.214-.49-1.932 0-.72.154-1.363.462-1.933a3.455 3.455 0 011.288-1.33 3.63 3.63 0 011.848-.475c.681 0 1.292.158 1.834.475.541.318.966.761 1.274 1.33.308.56.462 1.204.462 1.932l-.014.309zm-3.556-3.193c-.71 0-1.307.23-1.792.687-.476.447-.747 1.035-.812 1.764h5.222c-.066-.728-.341-1.316-.826-1.764-.476-.458-1.074-.687-1.792-.687zm10.622.085h-2.786v6.482h-.994v-6.482h-2.786v-.883h6.566v.883zm4.133 6.552c-.709 0-1.348-.16-1.918-.476a3.577 3.577 0 01-1.344-1.344c-.326-.57-.49-1.214-.49-1.932 0-.72.164-1.363.49-1.933a3.478 3.478 0 011.344-1.33 3.875 3.875 0 011.918-.475c.71 0 1.349.158 1.918.475a3.37 3.37 0 011.33 1.33c.327.57.49 1.214.49 1.932 0 .72-.163 1.363-.49 1.933a3.465 3.465 0 01-1.33 1.344c-.569.317-1.208.476-1.918.476zm0-.883c.523 0 .99-.116 1.4-.35a2.52 2.52 0 00.98-1.022c.234-.438.35-.938.35-1.498s-.116-1.059-.35-1.497a2.43 2.43 0 00-.98-1.008 2.698 2.698 0 00-1.4-.364c-.522 0-.994.12-1.414.364a2.55 2.55 0 00-.98 1.008c-.233.438-.35.938-.35 1.498s.117 1.059.35 1.497c.243.44.57.78.98 1.023.42.233.892.35 1.414.35zm11.421-6.552v7.364h-.994v-3.066c-.85.374-1.685.56-2.506.56-.887 0-1.578-.2-2.072-.602-.495-.41-.742-1.022-.742-1.834v-2.422h.994v2.366c0 .551.177.971.532 1.26.354.28.844.42 1.47.42.69 0 1.465-.181 2.324-.546v-3.5h.994zm2.822 0h.994v3.262h4.634v-3.262h.994v7.364h-.994V46.99h-4.634v3.248h-.994v-7.364zm12.542 2.604c.924.01 1.628.215 2.114.616.485.402.728.98.728 1.736 0 .785-.262 1.387-.784 1.806-.523.42-1.27.626-2.24.616l-2.912-.014v-7.364h.994v2.576l2.1.028zm4.074-2.604h.994v7.364h-.994v-7.364zm-4.312 6.622c.681.01 1.194-.126 1.54-.406.354-.289.532-.709.532-1.26 0-.54-.173-.942-.518-1.203-.346-.262-.864-.397-1.554-.407l-1.862-.027v3.276l1.862.027zm8.136-6.622h.994v5.852l4.914-5.852h.882v7.364h-.994v-5.852l-4.9 5.852h-.896v-7.364zm3.346-1.064c-.635 0-1.139-.158-1.512-.476-.373-.317-.565-.765-.574-1.344h.714c.009.364.14.658.392.883.252.214.579.322.98.322s.728-.108.98-.322c.261-.224.397-.518.406-.883h.714c-.009.58-.205 1.027-.588 1.344-.373.318-.877.476-1.512.476zm18.189 1.064v7.364h-.91v-5.824l-2.982 4.928h-.448l-2.982-4.941v5.837h-.91v-7.364h1.008l3.122 5.306 3.178-5.306h.924zm5.362-.056c.962 0 1.699.243 2.212.729.514.476.77 1.185.77 2.128v4.564h-.952V49.09a2.27 2.27 0 01-.994.895c-.429.215-.942.323-1.54.323-.821 0-1.474-.197-1.96-.588-.485-.392-.728-.91-.728-1.554 0-.626.224-1.13.672-1.513.458-.382 1.181-.574 2.17-.574h2.338v-.447c0-.635-.177-1.116-.532-1.443-.354-.335-.872-.503-1.554-.503-.466 0-.914.079-1.344.238a3.284 3.284 0 00-1.106.63l-.448-.742c.374-.318.822-.56 1.344-.729a5.112 5.112 0 011.652-.266zm-.35 6.707c.56 0 1.041-.127 1.442-.378.402-.262.7-.635.896-1.12v-1.205h-2.31c-1.26 0-1.89.44-1.89 1.316 0 .43.164.77.49 1.023.327.242.784.364 1.372.364zm11.186-5.768h-4.214v6.482h-.994v-7.364h5.208v.882zm3.971-.938c.961 0 1.699.242 2.212.727.513.477.77 1.186.77 2.129v4.564h-.952V49.09a2.27 2.27 0 01-.994.895c-.429.215-.943.323-1.54.323-.821 0-1.475-.197-1.96-.588-.485-.392-.728-.91-.728-1.554 0-.626.224-1.13.672-1.513.457-.382 1.181-.574 2.17-.574h2.338v-.447c0-.635-.177-1.116-.532-1.443-.355-.335-.873-.503-1.554-.503-.467 0-.915.079-1.344.238a3.284 3.284 0 00-1.106.63l-.448-.742c.373-.318.821-.56 1.344-.729a5.107 5.107 0 011.652-.266zm-.35 6.706c.56 0 1.041-.127 1.442-.378.401-.262.7-.635.896-1.12v-1.205h-2.31c-1.26 0-1.89.44-1.89 1.316 0 .43.163.77.49 1.023.327.242.784.364 1.372.364zm9.412-3.122c.522.12.924.33 1.204.63.289.298.434.662.434 1.091 0 .43-.15.813-.448 1.148-.29.337-.686.598-1.19.785a4.991 4.991 0 01-1.666.265 5.582 5.582 0 01-1.568-.224 4.139 4.139 0 01-1.344-.685l.336-.742a3.86 3.86 0 001.176.587c.448.14.9.21 1.358.21.681 0 1.236-.126 1.666-.378.438-.26.658-.61.658-1.05 0-.392-.178-.695-.532-.91-.355-.224-.84-.336-1.456-.336h-1.26v-.727h1.204c.55 0 .994-.103 1.33-.309.336-.214.504-.499.504-.854 0-.392-.192-.7-.574-.924-.374-.223-.864-.335-1.47-.335-.794 0-1.578.2-2.352.601l-.28-.77a5.832 5.832 0 012.73-.685c.56 0 1.064.084 1.512.252.457.158.812.387 1.064.685.261.3.392.645.392 1.036 0 .374-.131.705-.392.994-.252.29-.598.505-1.036.645zm3.894-3.529h.994v5.852l4.914-5.852h.882v7.364h-.994v-5.852l-4.9 5.852h-.896v-7.364zm9.639 0h.994v3.262h4.634v-3.262h.994v7.364h-.994V46.99h-4.634v3.248h-.994v-7.364z" ></path>
    <path d="M50.212 28.236C44.414 41.15 33.615 41.157 31.738 41.641c3.012 2.571 6.587 4.005 10.366 4.005 4.535 0 8.545-2.044 12.075-6.25l3.154-3.763-3.154-3.762c-1.288-1.535-2.655-2.697-3.967-3.635zm-43.092 0c-1.31.938-2.678 2.1-3.966 3.635L0 35.633l3.154 3.763c3.53 4.206 7.54 6.25 12.075 6.25 3.786 0 7.367-1.44 10.382-4.02-8.037-.12-14.95-5.506-18.49-13.39zm14.73 20.146c.879 2.326 2.098 4.482 3.66 6.346l3.156 3.762 3.157-3.763c1.558-1.857 2.773-4.018 3.653-6.348-2.465-.961-4.772-2.444-6.81-4.433-2.039 1.991-4.349 3.475-6.816 4.436zm6.816-9.917l3.17-3.778c3.323-3.962 5.229-9.455 5.229-15.073 0-5.619-1.906-11.112-5.23-15.074L28.667.762l-3.17 3.778c-3.323 3.962-5.229 9.455-5.229 15.073 0 5.619 1.906 11.112 5.23 15.074l3.168 3.778zm-5.713-1.17c-3.838-4.69-6.044-11.11-6.044-17.682 0-2.588.35-5.15.997-7.598a15.131 15.131 0 00-5.46-1.04H7.983v5.32c0 10.324 6.171 19.275 14.968 21zm26.397-21v-5.32h-4.462c-1.856 0-3.702.36-5.461 1.04.647 2.447.997 5.01.997 7.598 0 6.572-2.206 12.992-6.043 17.682 8.788-1.723 14.968-10.663 14.968-21z" ></path>
  </symbol>
  <symbol xmlns="http://www.w3.org/2000/svg" viewBox="0 0 20 22" id="shopping-cart">
    <g clip-path="url(#clip0)"  fill-opacity=".64">
      <path d="M19.703 8.108a1.368 1.368 0 00-1.087-.536h-3.852l-2.088-4.917a.58.58 0 00-.772-.311.61.61 0 00-.302.793l1.883 4.435h-6.97l1.883-4.435a.61.61 0 00-.302-.793.58.58 0 00-.772.31L5.236 7.573H1.384c-.427 0-.823.195-1.087.536-.26.335-.355.765-.263 1.18l2.057 9.237a1.381 1.381 0 001.35 1.096h13.118c.651 0 1.206-.45 1.35-1.096l2.056-9.237a1.417 1.417 0 00-.262-1.18zM16.56 18.416H3.441a.21.21 0 01-.207-.16L1.177 9.02a.188.188 0 01.036-.16.21.21 0 01.171-.082h3.34l-.153.361a.61.61 0 00.302.793.57.57 0 00.234.051.586.586 0 00.537-.361l.359-.844h7.994l.359.844a.586.586 0 00.537.361.57.57 0 00.234-.05.61.61 0 00.303-.794l-.154-.361h3.34a.21.21 0 01.17.082.188.188 0 01.037.16l-2.057 9.237a.21.21 0 01-.207.16z"></path>
      <path d="M6.484 11.387a.594.594 0 00-.586.603v4.418c0 .332.263.602.586.602.324 0 .586-.27.586-.602V11.99a.594.594 0 00-.586-.603zm3.516 0a.594.594 0 00-.586.603v4.418c0 .332.262.602.586.602.324 0 .586-.27.586-.602V11.99a.594.594 0 00-.586-.603zm3.516 0a.594.594 0 00-.586.603v4.418c0 .332.262.602.586.602.323 0 .586-.27.586-.602V11.99a.594.594 0 00-.586-.603z"></path>
    </g>
    <defs>
      <clipPath id="clip0">
        <path  transform="translate(0 .676)" d="M0 0h20v20.563H0z"></path>
      </clipPath>
    </defs>
  </symbol>
   <symbol xmlns="http://www.w3.org/2000/svg" viewBox="0 0 16 16" id="heart">
    <path d="M14.422 4.431a4.065 4.065 0 00-.89-1.293 4.146 4.146 0 00-2.912-1.184A4.173 4.173 0 008 2.876a4.173 4.173 0 00-2.62-.923 4.146 4.146 0 00-2.913 1.184A4.038 4.038 0 001.25 6.023c0 .52.106 1.063.317 1.615.177.46.43.939.753 1.421.513.764 1.218 1.561 2.092 2.37a23.385 23.385 0 002.947 2.3l.37.238a.502.502 0 00.54 0l.37-.237c.061-.04 1.495-.963 2.947-2.302.875-.808 1.58-1.605 2.092-2.369.324-.482.578-.96.753-1.421a4.52 4.52 0 00.317-1.615 3.977 3.977 0 00-.326-1.592zM8 12.731S2.437 9.167 2.437 6.023c0-1.592 1.318-2.882 2.943-2.882A2.95 2.95 0 018 4.709a2.95 2.95 0 012.62-1.568c1.625 0 2.943 1.29 2.943 2.882C13.563 9.167 8 12.731 8 12.731z"></path>
  </symbol>
  <symbol xmlns="http://www.w3.org/2000/svg" viewBox="0 0 24 24" id="filter">
    <path d="M14 8a2 2 0 100-4 2 2 0 000 4zM4 6h8m4 0h4M8 14a2 2 0 100-4 2 2 0 000 4zm-4-2h2m4 0h10m-3 8a2 2 0 100-4 2 2 0 000 4zM4 18h11m4 0h1" stroke="#000" stroke-linecap="round" stroke-linejoin="round"></path>
  </symbol>
   <symbol xmlns="http://www.w3.org/2000/svg" viewBox="0 0 22 27" id="arrowUp">
    <path d="M11 26.5V1m0 0L1 11M11 1l10 10" stroke="#FFF9F9"></path>
  </symbol>
</svg>